<?xml version="1.0" encoding="utf-8"?>
<!-- Generator: Adobe Illustrator 25.0.0, SVG Export Plug-In . SVG Version: 6.00 Build 0)  -->
<svg version="1.1" id="Layer_1" xmlns="http://www.w3.org/2000/svg" xmlns:xlink="http://www.w3.org/1999/xlink" x="0px" y="0px"
	 viewBox="0 0 18 18" style="enable-background:new 0 0 18 18;" xml:space="preserve">
<style type="text/css">
	.st0{fill:#FAB559;}
</style>
<g>
	<path class="st0" d="M14,16.5c0,0.8-0.7,1.5-1.5,1.5h-7C4.7,18,4,17.3,4,16.5c0-0.3,0.1-0.6,0.2-0.8c0.4-0.7,0.9-1.4,1.3-2.2
		l1.4-2.4C7.3,10.5,7.6,9.9,8,9.2c0,0,0.3-0.4,0.2-0.4L7.8,8.1l-1-1.7l-1.2-2L4.7,3C4.4,2.6,4.1,2.2,4,1.7c0-0.3,0-0.7,0.2-1
		C4.5,0.3,5,0,5.6,0H13c0.6,0,1,0.4,1,1s-0.4,1-1,1H7.6l0.6,1C8.6,3.7,9,4.4,9.4,5.1l1.1,1.9C10.7,7.3,11,7.6,11,8
		c0,0.3-0.1,0.5-0.3,0.7c-0.4,0.6-0.7,1.1-1,1.7l-1.4,2.4l-1.1,1.8C7.2,14.7,7,15,7,15h5.5C13.3,15,14,15.7,14,16.5z"/>
	<path class="st0" d="M4.8,11.6C4.6,11.8,4.3,12,4,12c-0.2,0-0.4-0.1-0.5-0.2l-3-2c0,0,0,0,0,0C0.3,9.7,0.2,9.7,0.2,9.5
		C-0.1,9.1,0,8.5,0.5,8.2l3-2C3.9,5.9,4.5,6,4.8,6.4C5.1,6.9,5,7.5,4.6,7.8L2.8,9l1.8,1.2C5,10.5,5.1,11.1,4.8,11.6z M13.2,11.6
		c0.2,0.3,0.5,0.4,0.8,0.4c0.2,0,0.4-0.1,0.6-0.2l3-2c0,0,0,0,0,0c0.1-0.1,0.2-0.1,0.3-0.3c0.3-0.4,0.2-1.1-0.3-1.4l-3-2
		c-0.4-0.3-1.1-0.2-1.4,0.3c-0.3,0.4-0.2,1.1,0.3,1.4L15.2,9l-1.8,1.2C13,10.5,12.9,11.1,13.2,11.6L13.2,11.6z"/>
</g>
</svg>
